<?xml version="1.0" encoding="UTF-8" standalone="no"?>
<!DOCTYPE svg PUBLIC "-//W3C//DTD SVG 1.1//EN" "http://www.w3.org/Graphics/SVG/1.1/DTD/svg11.dtd">
<svg width="100%" height="100%" viewBox="0 0 800 800" version="1.1" xmlns="http://www.w3.org/2000/svg" xmlns:xlink="http://www.w3.org/1999/xlink" xml:space="preserve" xmlns:serif="http://www.serif.com/" style="fill-rule:evenodd;clip-rule:evenodd;stroke-linejoin:round;stroke-miterlimit:2;">
    <path d="M149.675,428.75C150.675,449.4 171.3,439.85 180.65,433.4C189.525,427.275 192.125,432.375 192.9,420.275C193.704,412.343 194.03,404.371 193.875,396.4C180.105,395.019 166.281,398.563 154.875,406.4C149.2,410.525 138.6,423.65 149.675,428.9" style="fill:rgb(246,210,162);"/>
    <path d="M160.4,443.3C158.361,443.337 156.341,442.901 154.5,442.025C150.22,439.55 147.625,434.918 147.75,429.975C144.98,428.636 143.088,425.958 142.75,422.9C143.505,415.553 147.458,408.9 153.55,404.725C165.326,396.584 179.636,392.92 193.875,394.4L195.575,394.55L195.575,396.25C195.794,402.481 195.602,408.719 195,414.925C194.85,416.75 194.725,418.55 194.6,420.375C194.05,428.95 192.45,430.25 188.025,431.775C185.701,432.517 183.501,433.605 181.5,435C175.297,439.534 168.029,442.393 160.4,443.3ZM188.15,398.1C176.67,397.947 165.424,401.392 156,407.95C151.95,410.9 146.325,417.8 146.8,422.55C147.089,424.598 148.514,426.315 150.475,426.975L151.55,427.475L151.55,428.65C151.8,433.8 153.35,437.1 156.175,438.5C161.625,441.2 171.775,437.05 179.45,431.775C181.752,430.175 184.28,428.928 186.95,428.075C189.85,427.075 190.45,426.85 190.875,420.125C190.875,418.3 191.125,416.475 191.275,414.625C191.785,409.157 192.002,403.666 191.925,398.175C190.642,398.125 189.392,398.1 188.175,398.1L188.15,398.1Z" style="fill-rule:nonzero;"/>
    <path d="M149.675,428.75C152.813,428.056 155.676,426.446 157.9,424.125" style="fill:rgb(198,177,152);"/>
    <path d="M149.675,430.725C148.621,430.684 147.776,429.806 147.776,428.751C147.776,427.953 148.261,427.229 149,426.925L150.325,426.45C152.636,425.922 154.736,424.711 156.35,422.975C156.706,422.381 157.351,422.016 158.044,422.016C159.127,422.016 160.019,422.907 160.019,423.991C160.019,424.485 159.834,424.961 159.5,425.325C157.438,427.698 154.698,429.382 151.65,430.15L150.375,430.6C150.151,430.684 149.914,430.727 149.675,430.725Z" style="fill-rule:nonzero;"/>
    <path d="M197.35,182.725C118.275,160.5 177.075,60 240.55,101.3L197.35,182.725Z" style="fill:rgb(20,92,191);"/>
    <path d="M198.35,185L196.825,184.575C177.393,181.27 161.864,166.358 157.775,147.075C155.863,127.314 165.349,108.098 182.2,97.6C200.516,86.039 224.163,86.844 241.65,99.625L243.15,100.6L198.35,185ZM209.575,93.35C200.611,93.353 191.837,95.959 184.325,100.85C168.754,110.492 159.949,128.19 161.65,146.425C165.316,163.668 179.033,177.099 196.35,180.4L237.975,101.975C229.49,96.534 219.654,93.564 209.575,93.4L209.575,93.35Z" style="fill-rule:nonzero;"/>
    <path d="M548.6,93.75C611.1,49.8 667.725,148.975 595,173.925L548.6,93.75Z" style="fill:rgb(20,92,191);"/>
    <path d="M594.125,176.3L546,93.175L547.475,92.15C563.813,79.069 586.557,77.156 604.85,87.325C622.1,97.444 632.219,116.492 630.95,136.45C628.36,155.522 614.311,171.161 595.625,175.775L594.125,176.3ZM551.225,94.325L595.9,171.5C612.416,167.001 624.712,153.008 627.05,136.05C628.194,117.611 618.821,100.029 602.875,90.7C586.554,81.323 566.076,82.761 551.225,94.325Z" style="fill-rule:nonzero;"/>
    <path d="M562.075,682.925C577.975,692.75 607.075,722.5 583.175,736.925C560.275,757.9 547.45,713.9 527.325,707.8C535.131,695.217 547.647,686.257 562.075,682.925Z" style="fill:rgb(246,210,162);"/>
    <path d="M571.1,744.525L570.15,744.525C561.125,743.975 553.625,735.175 546.375,726.65C541.399,719.414 534.639,713.583 526.75,709.725L524.1,708.925L525.75,706.675C533.903,693.713 546.859,684.488 561.775,681.025L562.5,681.025L563.125,681.4C573.3,687.7 594.3,706.1 594.2,722.75C594.094,729.443 590.313,735.561 584.375,738.65C580.856,742.219 576.108,744.32 571.1,744.525ZM530.475,707.025C537.888,711.391 544.322,717.238 549.375,724.2C556.4,732.45 563.05,740.25 570.4,740.7C574.735,740.688 578.875,738.876 581.825,735.7L582.125,735.475C586.97,733.107 590.101,728.216 590.225,722.825C590.225,709.525 573.425,692.825 561.625,685.325C548.876,688.284 537.728,696.006 530.475,706.9L530.475,707.025Z" style="fill-rule:nonzero;"/>
    <path d="M583.175,738.9C582.438,738.897 581.761,738.481 581.425,737.825C580.262,735.384 579.235,732.88 578.35,730.325C576.986,725.519 574.54,721.089 571.2,717.375C570.907,717.021 570.747,716.576 570.747,716.116C570.747,715.033 571.638,714.141 572.722,714.141C573.157,714.141 573.58,714.285 573.925,714.55C577.712,718.665 580.493,723.603 582.05,728.975C582.89,731.359 583.858,733.696 584.95,735.975C585.436,736.942 585.041,738.137 584.075,738.625C583.802,738.789 583.493,738.883 583.175,738.9Z" style="fill-rule:nonzero;"/>
    <path d="M278.1,716.55C259.45,719.425 248.95,736.275 233.4,744.825C218.75,753.575 213.125,742.025 211.825,739.675C209.525,738.625 209.725,740.65 206.175,737.175C192.5,715.625 220.3,700 234.75,689.3C254.875,685.225 267.5,702.675 278.1,716.55Z" style="fill:rgb(246,210,162);"/>
    <path d="M223.475,750C222.285,750.007 221.1,749.856 219.95,749.55C215.801,748.195 212.373,745.218 210.45,741.3L210,741.3C208.35,741.3 207.125,740.95 204.675,738.475L204.4,738.15C191.325,717.5 213.575,701.825 228.325,691.45C230.175,690.15 231.925,688.95 233.5,687.75L233.85,687.5L234.275,687.5C255,683.3 268.1,700.45 278.6,714.225L281.575,718.1L278.3,718.6C267.765,721.129 258.175,726.631 250.675,734.45C245.629,739.064 240.125,743.152 234.25,746.65C231.021,748.707 227.301,749.864 223.475,750ZM210.3,737.35C211.096,737.351 211.882,737.53 212.6,737.875L213.175,738.15L213.675,739.025C215.097,742.161 217.733,744.589 220.975,745.75C224.955,746.489 229.07,745.587 232.375,743.25C238.034,739.869 243.336,735.924 248.2,731.475C255.594,724.086 264.645,718.566 274.6,715.375C264.6,702.225 253.05,688.025 235.55,691.3C234.025,692.4 232.375,693.575 230.55,694.775C215.55,705.375 196.75,718.575 207.575,735.975C209.125,737.525 209.5,737.5 209.825,737.5L210.3,737.35Z" style="fill-rule:nonzero;"/>
    <path d="M211.8,741.625L211.625,741.625C210.55,741.533 209.739,740.576 209.825,739.5C210.632,734.258 212.815,729.323 216.15,725.2C217.722,723.024 219.103,720.715 220.275,718.3C220.618,717.658 221.289,717.256 222.017,717.256C223.1,717.256 223.992,718.148 223.992,719.231C223.992,719.459 223.952,719.685 223.875,719.9C222.614,722.525 221.125,725.035 219.425,727.4C216.482,731.001 214.534,735.312 213.775,739.9C213.649,740.887 212.795,741.633 211.8,741.625Z" style="fill-rule:nonzero;"/>
    <path d="M200.65,155C190.225,149.475 182.575,142 188.95,130C194.85,118.825 205.825,120 216.25,125.55L200.65,155Z"/>
    <path d="M578.525,144.45C588.95,138.925 596.6,131.45 590.225,119.45C584.325,108.275 573.35,109.45 562.925,115L578.525,144.45Z"/>
    <path d="M650.325,426.15C649.325,446.8 628.7,437.25 619.35,430.8C610.475,424.675 607.875,429.775 607.1,417.675C606.296,409.743 605.97,401.771 606.125,393.8C619.895,392.419 633.719,395.963 645.125,403.8C650.8,407.925 661.4,421.05 650.325,426.3" style="fill:rgb(246,210,162);"/>
    <path d="M639.6,440.675C631.886,439.817 624.527,436.965 618.25,432.4C616.249,431.005 614.049,429.917 611.725,429.175C607.3,427.625 605.7,426.325 605.15,417.775C605.15,415.95 604.9,414.15 604.75,412.325C604.148,406.119 603.956,399.881 604.175,393.65L604.175,391.95L605.875,391.8C620.114,390.32 634.424,393.984 646.2,402.125C652.292,406.3 656.245,412.953 657,420.3C656.662,423.358 654.77,426.036 652,427.375C652.125,432.318 649.53,436.95 645.25,439.425C643.483,440.255 641.553,440.682 639.6,440.675ZM608.025,395.675C607.948,401.166 608.165,406.657 608.675,412.125C608.825,413.95 608.95,415.775 609.075,417.625C609.5,424.35 610.1,424.55 613,425.575C615.67,426.428 618.198,427.675 620.5,429.275C628.15,434.575 638.325,438.7 643.775,436C646.6,434.6 648.15,431.3 648.4,426.15L648.4,424.975L649.475,424.475C651.436,423.815 652.861,422.098 653.15,420.05C653.6,415.3 648,408.4 643.95,405.45C633.459,398.15 620.772,394.671 608.025,395.6L608.025,395.675Z" style="fill-rule:nonzero;"/>
    <path d="M650.325,426.15C647.187,425.456 644.324,423.846 642.1,421.525" style="fill:rgb(198,177,152);"/>
    <path d="M650.325,428.1C650.102,428.139 649.873,428.139 649.65,428.1L648.375,427.65C645.326,426.884 642.586,425.199 640.525,422.825C640.191,422.461 640.006,421.985 640.006,421.491C640.006,420.407 640.898,419.516 641.981,419.516C642.674,419.516 643.319,419.881 643.675,420.475C645.289,422.211 647.389,423.422 649.7,423.95L651.025,424.425C651.764,424.729 652.249,425.453 652.249,426.251C652.249,427.306 651.404,428.184 650.35,428.225L650.325,428.1Z" style="fill-rule:nonzero;"/>
    <path d="M392.075,51.975C471.225,51.975 545.425,63.3 584.1,139.35C618.825,224.575 606.475,316.5 611.775,406.575C616.325,483.925 626.4,573.275 590.525,644.975C552.775,720.375 458.45,739.35 380.725,736.575C319.675,734.4 245.95,714.475 211.5,658.7C171.075,593.275 190.225,495.975 193.15,423.175C196.625,336.95 169.8,250.425 198.15,166.05C227.55,78.55 306.8,58.725 392.1,51.975" style="fill:rgb(20,92,191);"/>
    <path d="M394.25,738.75C389.25,738.75 384.75,738.75 380.675,738.5C343.175,737.15 251.275,726.775 209.85,659.7C177.175,606.8 183,533.675 188.125,469.15C189.425,452.925 190.625,437.575 191.225,423.075C191.809,392.473 190.498,361.865 187.3,331.425C178.797,276.057 181.862,219.524 196.3,165.4C208.389,126.418 236.359,94.279 273.3,76.925C310.784,60.535 351.038,51.398 391.925,50L392.075,50C469.35,50 546.325,60.725 585.85,138.45L585.85,138.6C606.928,201.006 615.79,266.892 611.95,332.65C612.075,356.875 612.225,381.95 613.65,406.45C614.075,413.95 614.575,421.45 615.075,428.95C619.675,499.975 624.875,580.5 592.2,645.775C551.475,727.3 448.675,738.75 394.25,738.75ZM392.15,53.925C309.8,60.45 229.65,78.625 199.975,166.65C185.731,220.271 182.726,276.263 191.15,331.1C194.336,361.708 195.622,392.483 195,423.25C194.4,437.85 193.2,453.25 191.9,469.5C186.9,533.425 181.05,605.875 213.05,657.675C253.5,723.15 343.75,733.3 380.675,734.6C428.725,736.325 545.15,730.925 588.625,644.075C620.825,579.75 615.65,499.8 611.125,429.275C610.625,421.775 610.15,414.125 609.7,406.775C608.25,382.175 608.125,357.05 608,332.775C611.813,267.551 603.063,202.198 582.225,140.275C543.75,64.4 468.125,53.95 392.15,53.925Z" style="fill-rule:nonzero;"/>
    <path d="M406.05,158.225C420.25,240.725 555.3,219 535.9,135.725C518.4,61.025 401.325,81.7 406.05,158.225" style="fill:white;"/>
    <path d="M470.2,212.125C461.799,212.156 453.451,210.788 445.5,208.075C423.451,200.782 407.39,181.525 404.175,158.525L404.175,158.325C402.118,122.663 429.012,91.338 464.575,87.975C497.574,81.128 530.428,102.353 537.75,135.25C543.717,156.352 537.182,179.106 520.925,193.825C506.788,205.853 488.76,212.357 470.2,212.125ZM407.95,158C411.007,179.573 426.073,197.629 446.75,204.5C471.322,212.739 498.489,207.619 518.375,191C533.626,177.171 539.719,155.791 534.05,136C527.061,105.044 496.044,85.168 465,91.75C431.489,94.928 406.119,124.389 407.95,158Z" style="fill-rule:nonzero;"/>
    <path d="M244.7,171.575C263.1,243.5 378.25,225 373.9,152.95C368.7,66.55 227.075,83.225 244.675,171.575" style="fill:white;"/>
    <path d="M306.125,219.025C294.415,219.137 282.859,216.336 272.5,210.875C257.55,202.758 246.768,188.616 242.9,172.05C237.107,149.225 245.198,125.008 263.55,110.25C285.631,93.413 315.123,89.648 340.725,100.4C361.622,109.528 375.337,130.1 375.725,152.9C376.926,186.183 351.633,214.999 318.475,218.125C314.388,218.744 310.259,219.045 306.125,219.025ZM246.5,171.175C254.687,202.32 286.563,221.604 317.95,214.4C349.209,211.522 373.115,184.424 372.075,153.05C371.75,131.608 358.873,112.243 339.225,103.65C314.887,93.418 286.844,96.992 265.85,113C248.604,126.911 241.022,149.706 246.5,171.175Z" style="fill-rule:nonzero;"/>
    <path d="M422.35,257.35C423.534,268.722 423.667,280.179 422.75,291.575C420,296.75 414.625,297.3 410,299.4C403.598,298.394 398.153,294.143 395.625,288.175C394.936,275.26 395.278,262.31 396.65,249.45L422.35,257.35Z" style="fill:white;"/>
    <path d="M410.275,301.425L409.7,301.425C402.604,300.301 396.583,295.559 393.825,288.925L393.825,288.4C392.992,279.557 393.067,270.652 394.05,261.825C394.375,257.75 394.7,253.55 394.825,249.325L394.825,246.825L424.35,255.875L424.35,257.325C424.35,260.875 424.65,264.55 424.95,268.425C425.868,276.227 425.801,284.114 424.75,291.9L424.75,292.2L424.6,292.475C422.303,296.266 418.568,298.973 414.25,299.975C413.075,300.4 411.975,300.775 410.9,301.275L410.275,301.425ZM397.55,287.65C399.775,292.686 404.342,296.318 409.75,297.35C410.775,296.925 411.825,296.55 412.825,296.175C416.078,295.5 418.957,293.613 420.875,290.9C421.768,283.535 421.768,276.09 420.875,268.725C420.625,265.3 420.375,262.025 420.3,258.725L398.425,252.025C398.25,255.425 398,258.8 397.75,262.025C396.798,270.536 396.714,279.122 397.5,287.65L397.55,287.65Z" style="fill-rule:nonzero;"/>
    <ellipse cx="276.45" cy="159.85" rx="19.45" ry="21.05"/>
    <ellipse cx="285.3" cy="164.6" rx="4.575" ry="5.35" style="fill:white;"/>
    <ellipse cx="439.35" cy="154.6" rx="19.125" ry="21.05"/>
    <ellipse cx="448.05" cy="159.35" rx="4.5" ry="5.35" style="fill:white;"/>
    <path d="M366.775,256.175C358.3,276.725 371.5,317.85 394.525,287.525C393.836,274.61 394.178,261.66 395.55,248.8L366.775,256.175Z" style="fill:white;"/>
    <path d="M379.15,300.325C377.163,300.315 375.214,299.78 373.5,298.775C362.245,287.374 358.878,270.265 364.975,255.45L365.35,254.55L397.5,246.25L397.5,248.75C397.375,253 397.025,257.25 396.7,261.25C395.729,269.81 395.645,278.448 396.45,287.025L396.45,287.825L395.975,288.475C389.35,297.5 383.625,300.325 379.15,300.325ZM368.25,257.825C363.394,270.663 366.185,285.198 375.45,295.325C381.4,298.725 387.95,292.825 392.475,286.95C391.753,278.368 391.862,269.736 392.8,261.175C393.05,257.95 393.3,254.65 393.475,251.375L368.25,257.825Z" style="fill-rule:nonzero;"/>
    <path d="M369.675,216.575C356.897,217.776 347.015,228.631 347.015,241.465C347.015,244.947 347.742,248.391 349.15,251.575C360.025,271.275 384.325,249.825 399.475,251.85C416.975,252.2 431.175,270.275 445.15,255.125C460.7,238.275 438.45,221.85 421.05,214.525L369.675,216.575Z" style="fill:rgb(246,210,162);"/>
    <path d="M432.7,263.15C427.119,262.711 421.676,261.191 416.675,258.675C411.287,255.997 405.444,254.352 399.45,253.825L399.225,253.825C393.091,253.829 387.026,255.124 381.425,257.625C369.15,261.875 355.225,266.675 347.425,252.625C343.586,245.442 343.719,236.763 347.775,229.7C352.046,221.387 360.213,215.748 369.5,214.7L421.425,212.5L421.825,212.675C434.75,218.125 449.475,228.1 452,239.75C452.1,240.58 452.15,241.415 452.15,242.25C452.15,253.17 443.593,262.342 432.7,263.1L432.7,263.15ZM399.625,250C406.086,250.53 412.389,252.277 418.2,255.15C428.025,259.275 435.7,262.525 443.725,253.9C447.359,250.551 449.04,245.566 448.175,240.7C446,230.7 432.125,221.475 420.675,216.6L369.775,218.625C361.851,219.623 354.906,224.462 351.225,231.55C347.81,237.444 347.668,244.702 350.85,250.725C357.05,261.95 368.35,258.075 380.1,253.975C386.243,251.252 392.906,249.895 399.625,250Z" style="fill:rgb(35,31,32);fill-rule:nonzero;"/>
    <path d="M367.7,215.75C366.525,188.375 418.75,185 425,207.875C431.25,230.75 370.35,236.075 367.775,215.775L367.7,215.75Z" style="stroke:black;stroke-width:5.9px;"/>
    <g transform="matrix(1,0,0,1,0,1)">
        <g transform="matrix(1,0,0,1,0,-9)">
            <g transform="matrix(1,0,0,0.978194,-4.11275,49.0541)">
                <path d="M502.631,354.388C516.728,354.388 530.987,354.656 544.982,354.656L556.776,354.656C557.88,354.656 560.366,354.173 561.332,354.656C563.958,355.969 562.681,358.962 563.745,361.089C566.088,365.777 564.817,374.201 564.817,379.852L564.817,406.12C564.817,408.012 565.63,413.884 564.549,414.965C556.811,422.702 547.007,429.022 540.425,435.604C538.381,437.649 534.557,437.987 532.116,440.429C531.945,440.6 528.557,435.835 528.095,435.604C523.081,433.097 520.467,430.925 516.569,427.027C515.308,425.766 511.852,424.803 509.868,423.811C509.535,423.644 508.213,423.764 507.992,423.543C505.056,420.607 501.833,418.992 499.147,416.305C498.834,415.993 499.459,414.742 499.147,414.429C497.496,412.778 499.518,407.667 498.343,405.316C496.566,401.762 497.002,397.271 497.002,392.986C497.002,384.322 497.807,376.542 497.807,367.79L497.807,358.677C497.807,358.164 497.48,355.786 497.807,355.46C498.242,355.025 501.412,355.46 502.095,355.46" style="fill:none;stroke:black;stroke-width:1.4px;stroke-linecap:round;stroke-miterlimit:1.5;"/>
            </g>
            <g transform="matrix(1.06506,0,0,1.04183,-38.4423,24.502)">
                <path d="M502.631,354.388C516.728,354.388 530.987,354.656 544.982,354.656L556.776,354.656C557.88,354.656 560.366,354.173 561.332,354.656C563.958,355.969 562.681,358.962 563.745,361.089C566.088,365.777 564.817,374.201 564.817,379.852L564.817,406.12C564.817,408.012 565.63,413.884 564.549,414.965C556.811,422.702 547.007,429.022 540.425,435.604C538.381,437.649 534.557,437.987 532.116,440.429C531.945,440.6 528.557,435.835 528.095,435.604C523.081,433.097 520.467,430.925 516.569,427.027C515.308,425.766 511.852,424.803 509.868,423.811C509.535,423.644 508.213,423.764 507.992,423.543C505.056,420.607 501.833,418.992 499.147,416.305C498.834,415.993 499.459,414.742 499.147,414.429C497.496,412.778 499.518,407.667 498.343,405.316C496.566,401.762 497.002,397.271 497.002,392.986C497.002,384.322 497.807,376.542 497.807,367.79L497.807,358.677C497.807,358.164 497.48,355.786 497.807,355.46C498.242,355.025 501.412,355.46 502.095,355.46" style="fill:none;stroke:black;stroke-width:1.31px;stroke-linecap:round;stroke-miterlimit:1.5;"/>
            </g>
        </g>
        <g>
            <path d="M494.143,401.955C496.433,401.955 498.245,401.769 499.503,403.027C499.825,403.349 500.897,402.92 501.219,403.242C501.61,403.633 504.463,403.242 505.079,403.242C508.148,403.242 513.114,402.434 515.586,403.67C517.58,404.668 520.843,403.083 522.877,404.099C525.189,405.255 530.622,403.885 533.169,403.885L560.402,403.885" style="fill:none;stroke:black;stroke-width:1.38px;stroke-linecap:round;stroke-miterlimit:1.5;"/>
            <g transform="matrix(1,0,0,1,0,2)">
                <path d="M494.143,401.955C496.433,401.955 498.245,401.769 499.503,403.027C499.825,403.349 500.897,402.92 501.219,403.242C501.61,403.633 504.463,403.242 505.079,403.242C508.148,403.242 513.114,402.434 515.586,403.67C517.58,404.668 520.843,403.083 522.877,404.099C525.189,405.255 530.622,403.885 533.169,403.885L560.402,403.885" style="fill:none;stroke:black;stroke-width:1.38px;stroke-linecap:round;stroke-miterlimit:1.5;"/>
            </g>
        </g>
    </g>
    <g transform="matrix(0.535257,0,0,0.535257,251.958,184.384)">
        <g transform="matrix(37.3652,0,0,37.3652,547.75,350.811)">
        </g>
        <text x="473.767px" y="350.811px" style="font-family:'InkFree', 'Ink Free', cursive;font-size:37.365px;fill:white;fill-opacity:0.6;">STG</text>
    </g>
</svg>
